<svg xmlns="http://www.w3.org/2000/svg" xmlns:xlink="http://www.w3.org/1999/xlink" width="164" zoomAndPan="magnify" viewBox="0 0 123 126.749998" height="169" preserveAspectRatio="xMidYMid meet" version="1.0"><defs><clipPath id="a04527d2da"><path d="M 1.113281 2.257812 L 122.375 2.257812 L 122.375 126.5 L 1.113281 126.5 Z M 1.113281 2.257812 " clip-rule="nonzero"/></clipPath><clipPath id="c0a1186e71"><path d="M 0.121094 0 L 121.382812 0 L 121.382812 124.253906 L 0.121094 124.253906 Z M 0.121094 0 " clip-rule="nonzero"/></clipPath></defs><g clip-path="url(#a04527d2da)"><path fill="#545454" d="M 37.898438 106.570312 L 22.589844 100.824219 C 20.355469 104.066406 17.519531 105.851562 14.53125 106.328125 C 10.8125 106.921875 7.546875 105.78125 4.894531 103.253906 C 0.824219 99.371094 0.0742188 93.558594 2.8125 89.058594 C 5.769531 84.199219 11.179688 82.261719 16.996094 84.308594 L 30.019531 64.25 L 17.085938 44.355469 C 11.179688 46.683594 5.472656 44.199219 2.597656 39.285156 C -0.300781 34.332031 1.25 27.9375 5.609375 24.648438 C 10.488281 20.96875 17.226562 21.53125 21.316406 26.117188 C 22.109375 27.007812 22.898438 27.476562 24.132812 27.007812 L 54.320312 15.613281 C 53.84375 11.613281 54.769531 8.375 57.320312 5.75 C 59.78125 3.222656 63.140625 2.054688 67.078125 2.367188 C 71.28125 2.699219 74.441406 5.554688 75.976562 8.667969 C 78.03125 12.839844 77.316406 16.976562 74.976562 20.9375 L 104.453125 54.429688 C 109.449219 51.449219 115.304688 52.371094 118.996094 56.164062 C 122.933594 60.210938 123.652344 66.355469 120.246094 70.875 C 116.367188 76.019531 110.074219 77.210938 104.382812 74.082031 L 74.851562 107.746094 C 78.117188 112.4375 78.011719 117.882812 74.5625 122.246094 C 71.636719 125.941406 65.992188 127.523438 61.140625 125.425781 C 56.433594 123.398438 53.835938 118.355469 54.285156 112.789062 L 37.894531 106.570312 Z M 73.296875 13.761719 C 73.296875 9.527344 69.863281 6.09375 65.625 6.09375 C 61.390625 6.09375 57.957031 9.527344 57.957031 13.761719 C 57.957031 18 61.390625 21.429688 65.625 21.429688 C 69.863281 21.429688 73.296875 18 73.296875 13.761719 Z M 41.035156 47.292969 L 56.945312 22.875 C 57.640625 21.804688 56.351562 20.128906 55.371094 19.460938 L 24.085938 31.105469 C 24.347656 33.445312 24.027344 35.238281 23.910156 37.535156 Z M 99.5 62.289062 C 100.042969 59.8125 100.714844 58.707031 101.613281 56.90625 L 72.371094 23.882812 C 70.71875 24.050781 68.683594 24.613281 67.757812 25.710938 L 67.78125 52.773438 C 72.757812 53.976562 75.949219 57.386719 77.078125 62.222656 Z M 63.792969 52.707031 L 63.667969 25.847656 C 63.664062 24.777344 61.566406 24.519531 60.851562 24.632812 C 60.167969 24.742188 59.753906 25.722656 59.222656 26.550781 L 44.539062 49.457031 L 56.953125 56.59375 C 58.925781 54.597656 60.910156 53.476562 63.792969 52.707031 Z M 20.3125 33.667969 C 20.3125 29.441406 16.882812 26.011719 12.652344 26.011719 C 8.421875 26.011719 4.996094 29.441406 4.996094 33.667969 C 4.996094 37.898438 8.421875 41.328125 12.652344 41.328125 C 16.882812 41.328125 20.3125 37.898438 20.3125 33.667969 Z M 32.449219 60.339844 L 38.726562 50.710938 L 22.867188 41.246094 C 22.140625 40.808594 21.269531 41.1875 21.128906 41.609375 C 21.039062 41.875 20.6875 42.566406 21.015625 43.0625 Z M 54.695312 68.558594 C 54.03125 65.398438 54.269531 62.761719 54.65625 59.847656 L 42.386719 52.6875 L 34.859375 64.285156 L 42.183594 75.707031 Z M 73.3125 64.222656 C 73.3125 59.980469 69.871094 56.542969 65.628906 56.542969 C 61.386719 56.542969 57.945312 59.980469 57.945312 64.222656 C 57.945312 68.460938 61.386719 71.902344 65.628906 71.902344 C 69.871094 71.902344 73.3125 68.460938 73.3125 64.222656 Z M 118.449219 64.226562 C 118.449219 60.023438 115.035156 56.613281 110.828125 56.613281 C 106.621094 56.613281 103.210938 60.019531 103.210938 64.226562 C 103.210938 68.433594 106.621094 71.84375 110.828125 71.84375 C 115.035156 71.84375 118.449219 68.433594 118.449219 64.226562 Z M 72.394531 104.621094 L 101.339844 71.617188 C 100.636719 69.679688 100.105469 67.960938 99.097656 66.265625 L 77.058594 66.429688 C 75.828125 71.449219 72.332031 74.636719 67.65625 75.988281 L 67.765625 103.304688 C 69.425781 103.777344 70.84375 104.863281 72.394531 104.621094 Z M 37.3125 78.945312 C 38.289062 78.386719 38.839844 77.496094 38.261719 76.601562 C 36.375 73.667969 34.761719 70.835938 32.378906 68.019531 L 20.996094 85.578125 C 20.628906 86.140625 20.929688 86.503906 20.996094 86.796875 C 21.097656 87.257812 21.5625 87.886719 22.257812 87.488281 Z M 63.695312 102.75 L 63.730469 75.816406 C 61.019531 74.992188 58.890625 73.859375 56.832031 71.773438 L 44.589844 79.019531 L 60.570312 104.03125 C 61.472656 104.210938 63.695312 104.011719 63.695312 102.75 Z M 52.96875 108.34375 C 53.972656 108.734375 55.421875 109.164062 56.050781 108.550781 C 56.589844 108.027344 58.003906 106.964844 57.359375 105.976562 L 41.148438 80.992188 L 24.070312 90.871094 C 23.671875 92.847656 24.175781 94.714844 24.070312 97.050781 Z M 20.304688 94.941406 C 20.304688 90.734375 16.894531 87.328125 12.6875 87.328125 C 8.480469 87.328125 5.070312 90.734375 5.070312 94.941406 C 5.070312 99.144531 8.480469 102.554688 12.6875 102.554688 C 16.894531 102.554688 20.304688 99.144531 20.304688 94.941406 Z M 73.339844 114.882812 C 73.339844 110.667969 69.925781 107.253906 65.710938 107.253906 C 61.492188 107.253906 58.078125 110.667969 58.078125 114.882812 C 58.078125 119.09375 61.492188 122.511719 65.710938 122.511719 C 69.925781 122.511719 73.339844 119.09375 73.339844 114.882812 Z M 73.339844 114.882812 " fill-opacity="1" fill-rule="nonzero"/></g><g clip-path="url(#c0a1186e71)"><path fill="#000000" d="M 36.90625 104.3125 L 21.597656 98.570312 C 19.359375 101.808594 16.527344 103.59375 13.539062 104.070312 C 9.820312 104.664062 6.554688 103.523438 3.902344 100.996094 C -0.167969 97.113281 -0.917969 91.300781 1.820312 86.800781 C 4.773438 81.941406 10.1875 80.007812 16.003906 82.050781 L 29.027344 61.992188 L 16.089844 42.097656 C 10.1875 44.425781 4.480469 41.941406 1.605469 37.027344 C -1.292969 32.074219 0.257812 25.679688 4.617188 22.390625 C 9.496094 18.710938 16.234375 19.273438 20.320312 23.859375 C 21.117188 24.75 21.90625 25.21875 23.140625 24.75 L 53.328125 13.355469 C 52.851562 9.355469 53.777344 6.117188 56.328125 3.492188 C 58.789062 0.964844 62.148438 -0.203125 66.085938 0.109375 C 70.289062 0.441406 73.449219 3.296875 74.984375 6.410156 C 77.039062 10.582031 76.324219 14.722656 73.984375 18.679688 L 103.460938 52.171875 C 108.457031 49.191406 114.3125 50.113281 118.003906 53.90625 C 121.941406 57.953125 122.660156 64.097656 119.253906 68.617188 C 115.375 73.765625 109.082031 74.953125 103.390625 71.828125 L 73.859375 105.488281 C 77.125 110.179688 77.019531 115.625 73.566406 119.988281 C 70.644531 123.683594 65 125.265625 60.144531 123.171875 C 55.441406 121.140625 52.839844 116.097656 53.292969 110.53125 L 36.902344 104.3125 Z M 72.300781 11.503906 C 72.300781 7.273438 68.871094 3.839844 64.632812 3.839844 C 60.398438 3.839844 56.964844 7.269531 56.964844 11.503906 C 56.964844 15.742188 60.398438 19.171875 64.632812 19.171875 C 68.871094 19.171875 72.300781 15.742188 72.300781 11.503906 Z M 40.042969 45.035156 L 55.953125 20.617188 C 56.648438 19.546875 55.359375 17.871094 54.378906 17.203125 L 23.09375 28.847656 C 23.355469 31.1875 23.035156 32.980469 22.917969 35.277344 Z M 98.503906 60.03125 C 99.050781 57.554688 99.722656 56.449219 100.621094 54.648438 L 71.378906 21.625 C 69.726562 21.792969 67.691406 22.355469 66.765625 23.453125 L 66.785156 50.515625 C 71.761719 51.71875 74.957031 55.128906 76.085938 59.964844 Z M 62.800781 50.449219 L 62.675781 23.589844 C 62.671875 22.519531 60.574219 22.265625 59.859375 22.375 C 59.175781 22.484375 58.761719 23.46875 58.230469 24.292969 L 43.546875 47.199219 L 55.960938 54.335938 C 57.933594 52.339844 59.917969 51.21875 62.800781 50.449219 Z M 19.320312 31.414062 C 19.320312 27.183594 15.890625 23.753906 11.660156 23.753906 C 7.429688 23.753906 4 27.183594 4 31.414062 C 4 35.640625 7.429688 39.070312 11.660156 39.070312 C 15.890625 39.070312 19.320312 35.640625 19.320312 31.414062 Z M 31.457031 58.082031 L 37.734375 48.453125 L 21.875 38.988281 C 21.148438 38.554688 20.277344 38.929688 20.136719 39.351562 C 20.046875 39.621094 19.691406 40.308594 20.019531 40.804688 Z M 53.703125 66.300781 C 53.035156 63.140625 53.277344 60.503906 53.664062 57.589844 L 41.394531 50.429688 L 33.867188 62.027344 L 41.191406 73.449219 L 53.699219 66.300781 Z M 72.320312 61.964844 C 72.320312 57.722656 68.878906 54.285156 64.636719 54.285156 C 60.394531 54.285156 56.953125 57.722656 56.953125 61.964844 C 56.953125 66.203125 60.394531 69.644531 64.636719 69.644531 C 68.878906 69.644531 72.320312 66.203125 72.320312 61.964844 Z M 117.453125 61.96875 C 117.453125 57.765625 114.042969 54.355469 109.835938 54.355469 C 105.628906 54.355469 102.21875 57.761719 102.21875 61.96875 C 102.21875 66.175781 105.628906 69.585938 109.835938 69.585938 C 114.042969 69.585938 117.453125 66.175781 117.453125 61.96875 Z M 71.402344 102.363281 L 100.347656 69.363281 C 99.644531 67.421875 99.113281 65.703125 98.105469 64.007812 L 76.0625 64.171875 C 74.835938 69.195312 71.339844 72.378906 66.660156 73.734375 L 66.773438 101.046875 C 68.433594 101.519531 69.851562 102.605469 71.402344 102.363281 Z M 36.320312 76.6875 C 37.296875 76.132812 37.84375 75.238281 37.269531 74.34375 C 35.382812 71.410156 33.769531 68.578125 31.386719 65.761719 L 20.003906 83.320312 C 19.636719 83.882812 19.9375 84.246094 20.003906 84.539062 C 20.105469 85 20.570312 85.628906 21.265625 85.230469 Z M 62.703125 100.492188 L 62.738281 73.558594 C 60.027344 72.734375 57.898438 71.601562 55.839844 69.515625 L 43.597656 76.761719 L 59.578125 101.773438 C 60.476562 101.953125 62.703125 101.753906 62.703125 100.492188 Z M 51.976562 106.085938 C 52.980469 106.480469 54.429688 106.90625 55.058594 106.292969 C 55.597656 105.769531 57.011719 104.710938 56.367188 103.71875 L 40.15625 78.734375 L 23.078125 88.617188 C 22.679688 90.589844 23.183594 92.460938 23.078125 94.792969 L 51.972656 106.085938 Z M 19.3125 92.683594 C 19.3125 88.476562 15.902344 85.070312 11.695312 85.070312 C 7.488281 85.070312 4.078125 88.476562 4.078125 92.683594 C 4.078125 96.886719 7.488281 100.296875 11.695312 100.296875 C 15.902344 100.296875 19.3125 96.886719 19.3125 92.683594 Z M 72.347656 112.625 C 72.347656 108.414062 68.929688 104.996094 64.714844 104.996094 C 60.5 104.996094 57.085938 108.414062 57.085938 112.625 C 57.085938 116.835938 60.5 120.253906 64.714844 120.253906 C 68.929688 120.253906 72.347656 116.835938 72.347656 112.625 Z M 72.347656 112.625 " fill-opacity="1" fill-rule="nonzero"/></g></svg>
